<svg width="18" height="10" viewBox="0 0 18 10" fill="none" xmlns="http://www.w3.org/2000/svg">
<path d="M17.7061 5.70805L13.707 9.70707C13.512 9.90207 13.256 10 13 10C12.744 10 12.488 9.90207 12.293 9.70707C11.902 9.31607 11.902 8.68401 12.293 8.29301L14.5859 6.00004H1C0.447 6.00004 0 5.55204 0 5.00004C0 4.44804 0.447 4.00004 1 4.00004H14.5859L12.293 1.70707C11.902 1.31607 11.902 0.684006 12.293 0.293006C12.684 -0.0979941 13.316 -0.0979941 13.707 0.293006L17.7061 4.29203C17.7991 4.38503 17.8721 4.49496 17.9231 4.61796C18.0241 4.86196 18.0241 5.13812 17.9231 5.38212C17.8721 5.50512 17.7991 5.61505 17.7061 5.70805Z" fill="#3B75E1"/>
</svg>
