<svg width="18" height="19" viewBox="0 0 18 19" fill="none" xmlns="http://www.w3.org/2000/svg">
<path d="M17.7 7.75H0.300049C0.134049 7.75 0 7.88405 0 8.05005V16C0 18 1 19 3 19H15C17 19 18 18 18 16V8.05005C18 7.88405 17.866 7.75 17.7 7.75ZM12.03 11.864L8.69702 15.197C8.55102 15.343 8.35899 15.417 8.16699 15.417C7.97499 15.417 7.78296 15.344 7.63696 15.197L5.96997 13.53C5.67697 13.238 5.67697 12.762 5.96997 12.469C6.26297 12.176 6.73801 12.176 7.03101 12.469L8.16797 13.605L10.9709 10.802C11.2639 10.509 11.739 10.509 12.032 10.802C12.325 11.095 12.323 11.571 12.03 11.864ZM18 5.5V5.94995C18 6.11595 17.866 6.25 17.7 6.25H0.300049C0.134049 6.25 0 6.11595 0 5.94995V5.5C0 3.5 1 2.5 3 2.5H4.25V1C4.25 0.59 4.59 0.25 5 0.25C5.41 0.25 5.75 0.59 5.75 1V2.5H12.25V1C12.25 0.59 12.59 0.25 13 0.25C13.41 0.25 13.75 0.59 13.75 1V2.5H15C17 2.5 18 3.5 18 5.5Z" fill="#FBFCFF"/>
</svg>
