<svg width="24" height="24" viewBox="0 0 24 24" fill="none" xmlns="http://www.w3.org/2000/svg">
<path fill-rule="evenodd" clip-rule="evenodd" d="M24 12C24 17.32 20.5333 21.8133 15.7467 23.4C15.1733 23.4933 14.9733 23.1333 14.9733 22.8267C14.9733 22.4267 14.9867 21.1333 14.9867 19.5333C14.9867 18.4133 14.6 17.68 14.1733 17.3067C16.84 17.0133 19.6533 16 19.6533 11.3867C19.6533 10.08 19.1867 9.01334 18.4133 8.17334C18.5467 7.86667 18.96 6.63999 18.3066 4.98665C18.3066 4.98665 17.2933 4.66668 15 6.22668C14.04 5.96002 13.0133 5.82665 12 5.81331C10.9733 5.82665 9.94667 5.96002 9 6.22668C6.70667 4.66668 5.69336 4.98665 5.69336 4.98665C5.04003 6.63999 5.45332 7.86667 5.57332 8.17334C4.81332 9.01334 4.34668 10.08 4.34668 11.3867C4.34668 15.9867 7.14665 17.0133 9.81331 17.32C9.46665 17.6133 9.15997 18.1467 9.0533 18.92C8.35997 19.2267 6.62664 19.76 5.55998 17.92C5.55998 17.92 4.91997 16.7733 3.71997 16.6933C3.71997 16.6933 2.54664 16.68 3.63997 17.4133C3.63997 17.4133 4.42664 17.7867 4.97331 19.1733C4.97331 19.1733 5.66668 21.32 9.01335 20.5867C9.01335 21.5867 9.02669 22.5333 9.02669 22.8267C9.02669 23.12 8.81334 23.4933 8.25334 23.4C3.46667 21.8266 0 17.32 0 12C0 5.37333 5.37333 0 12 0C18.6267 0 24 5.37333 24 12Z" fill="#3B75E1"/>
</svg>
