<svg width="24" height="24" viewBox="0 0 24 24" fill="none" xmlns="http://www.w3.org/2000/svg">
<path d="M23.92 7.05341C23.8267 5.13341 23.3867 3.42676 21.9867 2.02676C20.5867 0.626757 18.88 0.186761 16.96 0.0934277C14.9733 -0.0132389 9.03999 -0.0132389 7.06665 0.0934277C5.14665 0.186761 3.45334 0.626757 2.04 2.02676C0.626669 3.42676 0.199987 5.13341 0.106653 7.05341C-1.33719e-05 9.04007 -1.33719e-05 14.9734 0.106653 16.9601C0.199987 18.8801 0.640003 20.5868 2.04 21.9868C3.45334 23.3868 5.14665 23.8267 7.06665 23.9201C9.05332 24.0268 14.9867 24.0268 16.96 23.9201C18.88 23.8267 20.5867 23.3868 21.9867 21.9868C23.3867 20.5868 23.8267 18.8801 23.92 16.9601C24.0267 14.9734 24.0267 9.04009 23.92 7.06675V7.05341ZM12 18.3334C8.50667 18.3334 5.66667 15.4934 5.66667 12.0001C5.66667 8.50675 8.50667 5.66675 12 5.66675C15.4933 5.66675 18.3333 8.50675 18.3333 12.0001C18.3333 15.4934 15.4933 18.3334 12 18.3334ZM19.36 6.00008C18.6267 6.00008 18.0267 5.40008 18.0267 4.66675C18.0267 3.93342 18.6133 3.33342 19.36 3.33342C20.0933 3.33342 20.6933 3.93342 20.6933 4.66675C20.6933 5.40008 20.0933 6.00008 19.36 6.00008ZM16.3333 12.0001C16.3333 14.3867 14.3867 16.3334 12 16.3334C9.61334 16.3334 7.66667 14.3867 7.66667 12.0001C7.66667 9.61342 9.61334 7.66675 12 7.66675C14.3867 7.66675 16.3333 9.61342 16.3333 12.0001Z" fill="#3B75E1"/>
</svg>
