<svg width="25" height="25" viewBox="0 0 25 25" fill="none" xmlns="http://www.w3.org/2000/svg">
<path d="M5.38665 23.9999H0.33333V8.83994H5.38665V23.9999ZM5.89333 2.94661C5.89333 1.34661 4.62667 0.0532693 3.02667 -6.40517e-05C1.4 -0.0400641 0.039997 1.23993 -3.01679e-06 2.8666C-0.040003 4.49326 1.23999 5.85327 2.86666 5.89327C4.51999 5.9066 5.86666 4.59995 5.89333 2.94661ZM23.9333 14.8399C23.9333 10.1199 20.88 8.67993 18.28 8.67993C16.4533 8.6266 14.7333 9.51994 13.7333 11.0399V8.85327H8.85333V24.0133H13.9067V16.1466C13.9067 16.0666 13.9067 15.9866 13.9067 15.9066C13.9067 15.9066 13.9067 15.9066 13.9067 15.8933C13.8 14.2799 15.0267 12.8799 16.64 12.7733C17.96 12.7733 18.96 13.6266 18.96 16.0266V24.0133H24.0133L23.9467 14.8533L23.9333 14.8399Z" fill="#3B75E1"/>
</svg>
